HIERARCHY
ROOT Hips
{
	OFFSET 0.000000 83.214638 0.000000
	CHANNELS 6 Xposition Yposition Zposition Xrotation Yrotation Zrotation
	JOINT Pelvis
	{
		OFFSET 0.000000 0.000000 0.000000
		CHANNELS 3 Xrotation Yrotation Zrotation
		JOINT LeftUpLeg
		{
			OFFSET 8.479700 -4.795502 -0.379100
			CHANNELS 3 Xrotation Yrotation Zrotation
			JOINT LeftLeg
			{
				OFFSET 0.024144 -32.555107 0.112900
				CHANNELS 3 Xrotation Yrotation Zrotation
				JOINT LeftFoot
				{
					OFFSET -0.024144 -32.638630 -3.012600
					CHANNELS 3 Xrotation Yrotation Zrotation
					JOINT LeftToeBase
					{
						OFFSET 0.970200 -13.225400 11.864200
						CHANNELS 3 Xrotation Yrotation Zrotation
						End Site
						{
							OFFSET 0.000000 12.319262 0.000000
						}
					}
					JOINT LFootTongue
					{
						OFFSET 1.142400 -1.059800 6.665200
						CHANNELS 3 Xrotation Yrotation Zrotation
						End Site
						{
							OFFSET 0.000000 12.319262 0.000000
						}
					}
				}
				JOINT LeftPantLeg
				{
					OFFSET 0.918482 -16.533964 -2.284700
					CHANNELS 3 Xrotation Yrotation Zrotation
					End Site
					{
						OFFSET 0.350399 24.744368 0.000000
					}
				}
			}
		}
		JOINT RightUpLeg
		{
			OFFSET -8.479700 -4.795502 -0.379100
			CHANNELS 3 Xrotation Yrotation Zrotation
			JOINT RightLeg
			{
				OFFSET -0.023144 -32.555092 0.112900
				CHANNELS 3 Xrotation Yrotation Zrotation
				JOINT RightFoot
				{
					OFFSET 0.023144 -32.638641 -3.012700
					CHANNELS 3 Xrotation Yrotation Zrotation
					JOINT RightToeBase
					{
						OFFSET -0.970200 -13.225400 11.864200
						CHANNELS 3 Xrotation Yrotation Zrotation
						End Site
						{
							OFFSET 0.000000 12.319244 0.000000
						}
					}
					JOINT RFootTongue
					{
						OFFSET -1.142200 -1.059800 6.665200
						CHANNELS 3 Xrotation Yrotation Zrotation
						End Site
						{
							OFFSET 0.000000 12.319243 0.000000
						}
					}
				}
				JOINT RightPantLeg
				{
					OFFSET -0.919482 -16.533978 -2.284800
					CHANNELS 3 Xrotation Yrotation Zrotation
					End Site
					{
						OFFSET -0.350400 24.744419 0.000000
					}
				}
			}
		}
	}
	JOINT Spine
	{
		OFFSET 0.000000 7.722000 1.166200
		CHANNELS 3 Xrotation Yrotation Zrotation
		JOINT Spine1
		{
			OFFSET 0.000000 12.024101 0.248800
			CHANNELS 3 Xrotation Yrotation Zrotation
			JOINT Spine2
			{
				OFFSET 0.000000 11.502998 -0.491200
				CHANNELS 3 Xrotation Yrotation Zrotation
				JOINT Neck
				{
					OFFSET 0.000000 18.430702 -3.123100
					CHANNELS 3 Xrotation Yrotation Zrotation
					JOINT Head
					{
						OFFSET 0.000000 9.051102 1.034000
						CHANNELS 3 Xrotation Yrotation Zrotation
						JOINT HairB
						{
							OFFSET 0.208400 24.786102 24.822300
							CHANNELS 3 Xrotation Yrotation Zrotation
							End Site
							{
								OFFSET 0.000000 32.263779 0.000000
							}
						}
						JOINT HairA
						{
							OFFSET -7.081100 24.428299 23.196600
							CHANNELS 3 Xrotation Yrotation Zrotation
							End Site
							{
								OFFSET 0.000000 32.263779 0.000000
							}
						}
						JOINT Hat
						{
							OFFSET 16.728800 15.048294 -15.439601
							CHANNELS 3 Xrotation Yrotation Zrotation
							End Site
							{
								OFFSET 0.000000 32.263779 0.000000
							}
						}
					}
				}
				JOINT LeftShoulder
				{
					OFFSET 6.197800 13.665199 -4.064700
					CHANNELS 3 Xrotation Yrotation Zrotation
					JOINT LeftArm
					{
						OFFSET 7.778100 -0.187103 -1.709300
						CHANNELS 3 Xrotation Yrotation Zrotation
						JOINT LeftForeArm
						{
							OFFSET 22.049376 0.000000 0.000000
							CHANNELS 3 Xrotation Yrotation Zrotation
							JOINT LeftHand
							{
								OFFSET 23.009392 0.000000 0.000000
								CHANNELS 3 Xrotation Yrotation Zrotation
								JOINT LeftHandThumb1
								{
									OFFSET 3.507191 -2.063065 3.133727
									CHANNELS 3 Xrotation Yrotation Zrotation
									JOINT LeftHandThumb2
									{
										OFFSET 3.101337 -1.790558 1.790558
										CHANNELS 3 Xrotation Yrotation Zrotation
										JOINT LeftHandThumb3
										{
											OFFSET 3.058640 -1.765907 1.765906
											CHANNELS 3 Xrotation Yrotation Zrotation
											End Site
											{
												OFFSET -0.415260 3.926476 -0.049563
											}
										}
									}
								}
								JOINT LeftHandIndex1
								{
									OFFSET 11.334419 -0.901459 3.706815
									CHANNELS 3 Xrotation Yrotation Zrotation
									JOINT LeftHandIndex2
									{
										OFFSET 3.283112 0.000000 0.000000
										CHANNELS 3 Xrotation Yrotation Zrotation
										JOINT LeftHandIndex3
										{
											OFFSET 3.323853 0.000000 0.000000
											CHANNELS 3 Xrotation Yrotation Zrotation
											End Site
											{
												OFFSET -1.135597 3.097809 0.402452
											}
										}
									}
								}
								JOINT LeftHandMiddle1
								{
									OFFSET 11.335861 0.000000 0.000000
									CHANNELS 3 Xrotation Yrotation Zrotation
									JOINT LeftHandMiddle2
									{
										OFFSET 3.410492 0.000000 0.000000
										CHANNELS 3 Xrotation Yrotation Zrotation
										JOINT LeftHandMiddle3
										{
											OFFSET 3.312172 0.000000 0.000000
											CHANNELS 3 Xrotation Yrotation Zrotation
											End Site
											{
												OFFSET -1.150200 3.080154 0.400270
											}
										}
									}
								}
								JOINT LeftHandRing1
								{
									OFFSET 11.514786 -0.013176 -3.003090
									CHANNELS 3 Xrotation Yrotation Zrotation
									JOINT LeftHandRing2
									{
										OFFSET 3.053307 0.000000 0.000000
										CHANNELS 3 Xrotation Yrotation Zrotation
										JOINT LeftHandRing3
										{
											OFFSET 3.295807 0.000000 0.000000
											CHANNELS 3 Xrotation Yrotation Zrotation
											End Site
											{
												OFFSET -1.281006 3.013344 0.375733
											}
										}
									}
								}
								JOINT LeftHandPinky1
								{
									OFFSET 10.518692 -0.960396 -5.730441
									CHANNELS 3 Xrotation Yrotation Zrotation
									JOINT LeftHandPinky2
									{
										OFFSET 2.861649 0.000000 0.000000
										CHANNELS 3 Xrotation Yrotation Zrotation
										JOINT LeftHandPinky3
										{
											OFFSET 2.863380 0.000000 0.000000
											CHANNELS 3 Xrotation Yrotation Zrotation
											End Site
											{
												OFFSET -0.843597 2.711159 0.369971
											}
										}
									}
								}
							}
							JOINT LSleeve
							{
								OFFSET 6.676277 -0.344902 -1.011730
								CHANNELS 3 Xrotation Yrotation Zrotation
								End Site
								{
									OFFSET 0.000000 14.885353 0.000000
								}
							}
						}
					}
				}
				JOINT RightShoulder
				{
					OFFSET -6.197800 13.665199 -4.064700
					CHANNELS 3 Xrotation Yrotation Zrotation
					JOINT RightArm
					{
						OFFSET -7.778100 -0.187103 -1.709300
						CHANNELS 3 Xrotation Yrotation Zrotation
						JOINT RightForeArm
						{
							OFFSET -22.049376 0.000000 0.000000
							CHANNELS 3 Xrotation Yrotation Zrotation
							JOINT RightHand
							{
								OFFSET -23.009392 0.000000 0.000000
								CHANNELS 3 Xrotation Yrotation Zrotation
								JOINT RightHandThumb1
								{
									OFFSET -3.507191 -2.063065 3.133727
									CHANNELS 3 Xrotation Yrotation Zrotation
									JOINT RightHandThumb2
									{
										OFFSET -3.101337 -1.790558 1.790558
										CHANNELS 3 Xrotation Yrotation Zrotation
										JOINT RightHandThumb3
										{
											OFFSET -3.058640 -1.765907 1.765906
											CHANNELS 3 Xrotation Yrotation Zrotation
											End Site
											{
												OFFSET 0.415260 3.926476 -0.049563
											}
										}
									}
								}
								JOINT RightHandIndex1
								{
									OFFSET -11.334419 -0.901459 3.706815
									CHANNELS 3 Xrotation Yrotation Zrotation
									JOINT RightHandIndex2
									{
										OFFSET -3.283112 0.000000 0.000000
										CHANNELS 3 Xrotation Yrotation Zrotation
										JOINT RightHandIndex3
										{
											OFFSET -3.323853 0.000000 0.000000
											CHANNELS 3 Xrotation Yrotation Zrotation
											End Site
											{
												OFFSET 1.135597 3.097809 0.402452
											}
										}
									}
								}
								JOINT RightHandMiddle1
								{
									OFFSET -11.335861 0.000000 0.000000
									CHANNELS 3 Xrotation Yrotation Zrotation
									JOINT RightHandMiddle2
									{
										OFFSET -3.410492 0.000000 0.000000
										CHANNELS 3 Xrotation Yrotation Zrotation
										JOINT RightHandMiddle3
										{
											OFFSET -3.312172 0.000000 0.000000
											CHANNELS 3 Xrotation Yrotation Zrotation
											End Site
											{
												OFFSET 1.150200 3.080154 0.400270
											}
										}
									}
								}
								JOINT RightHandRing1
								{
									OFFSET -11.514786 -0.013176 -3.003090
									CHANNELS 3 Xrotation Yrotation Zrotation
									JOINT RightHandRing2
									{
										OFFSET -3.053307 0.000000 0.000000
										CHANNELS 3 Xrotation Yrotation Zrotation
										JOINT RightHandRing3
										{
											OFFSET -3.295807 0.000000 0.000000
											CHANNELS 3 Xrotation Yrotation Zrotation
											End Site
											{
												OFFSET 1.281006 3.013344 0.375733
											}
										}
									}
								}
								JOINT RightHandPinky1
								{
									OFFSET -10.518692 -0.960396 -5.730441
									CHANNELS 3 Xrotation Yrotation Zrotation
									JOINT RightHandPinky2
									{
										OFFSET -2.861649 0.000000 0.000000
										CHANNELS 3 Xrotation Yrotation Zrotation
										JOINT RightHandPinky3
										{
											OFFSET -2.863380 0.000000 0.000000
											CHANNELS 3 Xrotation Yrotation Zrotation
											End Site
											{
												OFFSET 0.843597 2.711159 0.369971
											}
										}
									}
								}
							}
							JOINT RSleeve
							{
								OFFSET -6.676277 -0.344902 -1.011730
								CHANNELS 3 Xrotation Yrotation Zrotation
								End Site
								{
									OFFSET 0.000000 14.885353 0.000000
								}
							}
						}
					}
				}
				JOINT Backpack
				{
					OFFSET 0.000000 -2.471497 36.677502
					CHANNELS 3 Xrotation Yrotation Zrotation
					End Site
					{
						OFFSET 0.000000 20.427315 0.000000
					}
				}
				JOINT Hood
				{
					OFFSET 0.000000 18.754097 -10.431000
					CHANNELS 3 Xrotation Yrotation Zrotation
					JOINT Hood1
					{
						OFFSET 0.000000 -5.011002 -7.685901
						CHANNELS 3 Xrotation Yrotation Zrotation
						End Site
						{
							OFFSET 0.000000 9.175140 0.000000
						}
					}
				}
				JOINT LHoodieString
				{
					OFFSET 5.250500 16.397697 3.089900
					CHANNELS 3 Xrotation Yrotation Zrotation
					JOINT LHoodieString1
					{
						OFFSET 0.257700 -6.364304 3.694600
						CHANNELS 3 Xrotation Yrotation Zrotation
						JOINT LHoodieString2
						{
							OFFSET 0.000000 -9.643799 2.679100
							CHANNELS 3 Xrotation Yrotation Zrotation
							End Site
							{
								OFFSET 0.000000 10.009018 0.000000
							}
						}
					}
				}
				JOINT RHoodieString
				{
					OFFSET -5.250500 16.397697 3.089900
					CHANNELS 3 Xrotation Yrotation Zrotation
					JOINT RHoodieString1
					{
						OFFSET -0.257700 -6.364304 3.694600
						CHANNELS 3 Xrotation Yrotation Zrotation
						JOINT RHoodieString2
						{
							OFFSET 0.000000 -9.643799 2.679100
							CHANNELS 3 Xrotation Yrotation Zrotation
							End Site
							{
								OFFSET 0.000000 10.009018 0.000000
							}
						}
					}
				}
			}
			JOINT LBackpack_Strap
			{
				OFFSET 15.223200 -7.719803 -6.610900
				CHANNELS 3 Xrotation Yrotation Zrotation
				End Site
				{
					OFFSET 0.000000 16.040596 0.000000
				}
			}
			JOINT RBackpack_Strap
			{
				OFFSET -15.223000 -7.719803 -6.610900
				CHANNELS 3 Xrotation Yrotation Zrotation
				End Site
				{
					OFFSET 0.000000 16.040596 0.000000
				}
			}
		}
	}
	JOINT BoyFacialAnim_Joint
	{
		OFFSET 1.000000 -82.208099 -1.550900
		CHANNELS 3 Xrotation Yrotation Zrotation
		End Site
		{
			OFFSET 0.000000 30.012791 0.000000
		}
	}
}
MOTION
Frames: 4
Frame Time: 0.033333
0.333095 79.730423 -0.658775 -20.084789 -38.580863 -11.118014 -0.000001 0.000001 0.000001 -18.572505 43.759137 28.062145 22.886033 0.110388 -0.695785 2.418622 1.273801 -3.037563 0.000000 0.000000 -0.000000 0.000000 0.000000 -0.000000 -0.000000 -0.000000 -0.000000 6.651526 4.966394 -6.009761 31.072187 -0.102877 1.098781 -20.682528 -17.405747 4.262195 0.000000 0.000000 0.000000 0.000000 0.000000 0.000000 0.000001 -0.000001 0.000001 6.654676 -0.013687 -0.290571 13.309103 -0.107133 -0.573311 13.309097 -0.107142 -0.573308 0.058563 7.591111 0.523472 -5.016766 21.519501 12.133665 0.000000 -0.000001 0.000002 0.000000 -0.000001 0.000002 0.000000 -0.000001 0.000002 -37.571091 -4.822556 1.546117 -44.624563 -11.629076 -63.660635 1.490933 -47.173798 -0.312251 -109.650300 4.731573 24.225136 3.592087 4.185670 -5.133822 1.252896 4.302593 1.889369 -0.000000 -0.000004 0.000001 7.554898 5.560416 -33.410383 -14.917818 -6.767390 -80.641906 -0.000001 -0.000001 -0.000002 -0.349196 -1.566787 -62.979241 -6.177645 -6.585480 -60.286180 0.000000 0.000002 -0.000001 -5.286454 4.624247 -73.484714 0.757929 -3.521233 -58.282865 0.000001 -0.000001 -0.000004 -16.248803 1.424932 -86.150576 2.608787 -7.577994 -55.784730 0.000004 0.000002 -0.000003 -0.000001 0.000002 0.000000 -31.670426 22.544049 -0.844508 -13.506090 48.022992 57.937448 -1.360456 108.236239 -6.829231 -49.521672 -24.455759 -36.838970 15.407455 -4.518726 17.010998 11.550389 4.015411 -20.411400 -0.000001 0.000000 -0.000001 1.857051 -0.976113 4.781787 -1.775913 -0.095306 22.317049 -0.000000 -0.000001 0.000005 3.631172 5.779694 48.858819 -9.397600 -0.919650 110.759789 -0.000000 -0.000000 -0.000000 -8.676854 -5.659721 54.892294 -4.714168 8.864058 96.803759 -0.000001 -0.000001 0.000004 -12.562956 0.077595 69.885287 -3.484608 14.093096 79.770531 0.000002 -0.000000 0.000000 0.000000 -0.000004 -0.000002 0.000000 0.000002 -0.000001 0.000000 0.000002 -0.000001 0.000000 0.000002 -0.000001 0.000000 0.000002 -0.000001 0.000000 0.000002 -0.000001 0.000000 0.000003 -0.000000 0.000000 0.000002 -0.000001 0.000000 0.000002 -0.000001 0.000000 0.000003 -0.000000 -0.000000 -0.000001 -0.000000 -0.000000 -0.000001 -0.000000 -0.000001 0.000001 0.000001 
0.332979 79.671646 -0.818214 -20.174084 -38.617476 -10.999919 0.000001 0.000003 0.000001 -18.502518 43.728657 27.918052 22.861960 0.133215 -0.690379 2.588292 1.299102 -3.044759 0.000000 0.000000 -0.000000 0.000000 0.000000 -0.000000 -0.000000 -0.000000 0.000000 6.312611 4.936006 -6.097708 31.685261 -0.090913 1.121034 -20.917803 -17.314238 4.161808 -0.000000 -0.000000 0.000000 -0.000000 -0.000000 0.000000 0.000000 -0.000001 0.000002 6.693702 -0.028876 -0.320032 13.387067 -0.143837 -0.612419 13.387073 -0.143848 -0.612418 -0.053866 7.607771 0.410511 -5.131124 21.520230 12.088082 0.000001 0.000000 0.000002 0.000001 0.000000 0.000002 0.000001 0.000000 0.000002 -37.571713 -4.804615 1.543006 -42.900271 -14.810000 -61.569183 1.380462 -47.434595 -0.478397 -113.202913 3.078501 23.659130 3.528820 3.937869 -5.091582 1.252894 4.302593 1.889368 -0.000001 0.000003 -0.000001 7.554900 5.560409 -33.410383 -14.917814 -6.767390 -80.641913 -0.000002 -0.000001 -0.000004 -0.349199 -1.566786 -62.979241 -6.177646 -6.585477 -60.286180 0.000002 0.000000 0.000000 -5.286457 4.624240 -73.484714 0.757931 -3.521237 -58.282865 -0.000001 0.000000 -0.000000 -16.248801 1.424928 -86.150576 2.608790 -7.577999 -55.784723 -0.000001 0.000004 0.000002 -0.000001 0.000001 0.000000 -31.665901 22.534606 -0.855569 -13.567119 48.026055 57.971217 -1.360516 108.230973 -6.825910 -49.376343 -24.461532 -36.652206 15.407454 -4.518726 17.011001 11.550386 4.015413 -20.411402 -0.000001 0.000001 -0.000001 1.857044 -0.976109 4.781785 -1.775897 -0.095298 22.317035 -0.000002 -0.000001 0.000002 3.631166 5.779692 48.858826 -9.397595 -0.919661 110.759748 0.000002 0.000001 -0.000002 -8.676851 -5.659709 54.892304 -4.714159 8.864049 96.803759 -0.000001 0.000000 0.000000 -12.562958 0.077601 69.885307 -3.484613 14.093092 79.770524 -0.000000 -0.000002 0.000003 -0.000001 0.000002 -0.000001 0.000002 -0.000001 0.000001 0.000002 -0.000001 0.000001 0.000002 -0.000001 0.000001 0.000002 -0.000001 0.000001 0.000002 -0.000001 0.000001 0.000003 0.000000 -0.000001 0.000002 -0.000001 0.000001 0.000002 -0.000001 0.000001 0.000003 0.000000 -0.000001 -0.000000 0.000001 -0.000000 -0.000000 0.000001 -0.000000 0.000001 0.000003 0.000001 
0.312273 79.620804 -0.960531 -20.208961 -38.647560 -10.899466 0.000000 -0.000001 0.000001 -18.455233 43.596421 27.777660 22.886074 0.136670 -0.688378 2.703688 1.423945 -3.071416 0.000000 0.000000 -0.000000 0.000000 0.000000 -0.000000 0.000000 0.000001 -0.000000 5.995378 4.768327 -6.197715 32.177277 -0.092591 1.138178 -21.097235 -17.081748 4.106355 -0.000000 0.000002 -0.000000 -0.000000 0.000002 -0.000000 0.000001 0.000002 -0.000000 6.713076 -0.032426 -0.339478 13.425749 -0.155271 -0.638475 13.425746 -0.155252 -0.638476 -0.099640 7.618298 0.353518 -5.228424 21.521644 12.106241 0.000001 0.000001 -0.000001 0.000001 0.000001 -0.000001 0.000001 0.000001 -0.000001 -37.570080 -4.821663 1.529961 -42.854967 -14.790612 -61.497439 1.369397 -47.565308 -0.480861 -113.231983 2.999973 23.663293 3.525220 3.923793 -5.092822 1.252894 4.302593 1.889369 -0.000001 0.000002 -0.000001 7.554902 5.560416 -33.410386 -14.917809 -6.767389 -80.641906 0.000004 0.000003 -0.000001 -0.349196 -1.566788 -62.979241 -6.177648 -6.585475 -60.286180 0.000010 0.000003 -0.000003 -5.286458 4.624244 -73.484714 0.757931 -3.521237 -58.282858 -0.000003 0.000003 0.000002 -16.248807 1.424931 -86.150576 2.608795 -7.577997 -55.784727 -0.000002 -0.000002 -0.000006 0.000001 -0.000000 0.000000 -31.661492 22.521524 -0.866830 -13.583873 48.025092 57.965500 -1.356918 108.223132 -6.827385 -49.292837 -24.455620 -36.542526 15.407460 -4.518726 17.011004 11.550389 4.015411 -20.411404 -0.000002 -0.000001 -0.000001 1.857055 -0.976118 4.781774 -1.775896 -0.095297 22.317061 0.000001 -0.000001 0.000003 3.631186 5.779695 48.858802 -9.397592 -0.919666 110.759775 0.000000 0.000001 -0.000004 -8.676855 -5.659717 54.892301 -4.714159 8.864045 96.803759 0.000001 0.000001 -0.000001 -12.562962 0.077588 69.885293 -3.484609 14.093106 79.770531 -0.000004 0.000000 -0.000001 0.000001 -0.000002 -0.000002 -0.000000 -0.000002 0.000001 -0.000000 -0.000002 0.000001 -0.000000 -0.000002 0.000001 -0.000000 -0.000002 0.000001 -0.000000 -0.000002 0.000000 -0.000000 0.000001 -0.000001 -0.000000 -0.000002 0.000001 -0.000000 -0.000002 0.000000 -0.000000 0.000001 -0.000001 -0.000000 0.000003 -0.000000 -0.000000 0.000003 -0.000000 0.000000 -0.000001 0.000001 
0.283732 79.550972 -1.151537 -20.246679 -38.711084 -10.760243 -0.000000 0.000000 -0.000000 -18.429020 43.459411 27.622414 22.922255 0.139151 -0.686758 2.857119 1.579444 -3.105252 0.000000 0.000000 -0.000000 0.000000 0.000000 0.000000 0.000000 0.000001 0.000000 5.546270 4.503366 -6.356061 32.841681 -0.096086 1.161230 -21.333823 -16.701199 4.040599 0.000000 0.000002 -0.000000 0.000000 0.000002 -0.000000 0.000001 -0.000004 0.000002 6.733930 -0.032166 -0.370962 13.467433 -0.161046 -0.684360 13.467434 -0.161045 -0.684358 -0.154724 7.634124 0.288387 -5.322616 21.542242 12.113052 -0.000000 0.000001 0.000002 -0.000000 0.000001 0.000002 -0.000000 0.000001 0.000002 -37.569483 -4.826951 1.524911 -42.828459 -14.780032 -61.433488 1.363971 -47.671742 -0.480672 -113.259884 2.924397 23.655658 3.523810 3.918316 -5.093699 1.252895 4.302589 1.889369 -0.000000 0.000004 -0.000001 7.554899 5.560410 -33.410383 -14.917814 -6.767395 -80.641906 0.000001 0.000000 -0.000002 -0.349197 -1.566793 -62.979235 -6.177648 -6.585480 -60.286180 0.000006 0.000000 0.000002 -5.286453 4.624241 -73.484708 0.757924 -3.521235 -58.282865 0.000003 0.000003 -0.000003 -16.248801 1.424926 -86.150576 2.608788 -7.577996 -55.784730 0.000001 -0.000001 -0.000002 -0.000002 0.000003 0.000004 -31.653760 22.526328 -0.882866 -13.610608 48.007272 57.967372 -1.350083 108.210059 -6.831818 -49.198826 -24.440990 -36.418876 15.407455 -4.518727 17.011001 11.550387 4.015411 -20.411402 0.000001 -0.000002 0.000001 1.857049 -0.976104 4.781797 -1.775891 -0.095294 22.317037 -0.000002 0.000001 0.000002 3.631179 5.779689 48.858816 -9.397606 -0.919661 110.759761 0.000001 -0.000001 -0.000002 -8.676858 -5.659718 54.892297 -4.714170 8.864034 96.803752 0.000000 -0.000001 0.000004 -12.562953 0.077594 69.885293 -3.484604 14.093102 79.770565 -0.000003 -0.000001 -0.000002 -0.000002 -0.000001 0.000001 0.000001 -0.000003 0.000001 0.000001 -0.000003 0.000001 0.000001 -0.000003 0.000001 0.000001 -0.000003 0.000001 0.000001 -0.000003 0.000000 -0.000000 -0.000003 0.000000 0.000001 -0.000003 0.000001 0.000001 -0.000003 0.000000 -0.000000 -0.000003 0.000000 -0.000000 -0.000000 0.000000 -0.000000 -0.000000 0.000000 -0.000000 0.000000 -0.000000 
